# Blender v2.83.5 OBJ File: 'Tire.blend'
# www.blender.org
mtllib Tire.mtl
o faun_stw.001
v 30.587296 -2.861504 5.162193
v 26.500336 12.391277 5.177101
v 39.214035 19.735477 1.151077
v 45.267838 -2.857559 1.128983
v 15.334503 23.557102 5.188026
v 22.674744 36.274746 1.167252
v 0.081757 27.644039 5.192062
v 0.081726 42.328510 1.173195
v -15.171036 23.557056 5.188072
v -22.511292 36.274708 1.167320
v -26.336868 12.391270 5.177147
v -39.050568 19.735462 1.151176
v -30.423813 -2.861530 5.162285
v -45.104324 -2.857605 1.129112
v -26.336868 -18.114307 5.147324
v -39.050537 -25.450638 1.106979
v -15.171051 -29.280121 5.136406
v -22.511292 -41.989883 1.090759
v 0.081757 -33.367058 5.132393
v 0.081757 -48.043686 1.084839
v 15.334579 -29.280096 5.136353
v 22.674820 -41.989845 1.090706
v 26.500336 -18.114265 5.147263
v 39.214096 -25.450592 1.106880
v 51.341324 26.731602 6.884834
v 59.271194 -2.863159 6.855888
v 29.676483 48.396435 6.906059
v 0.081741 56.326305 6.913857
v -29.512985 48.396404 6.906136
v -51.177826 26.731556 6.884995
v -59.107712 -2.863197 6.856049
v -51.177841 -32.457924 6.827103
v -29.512955 -54.122803 6.805862
v 0.081757 -62.052673 6.798073
v 29.676529 -54.122757 6.805779
v 51.341324 -32.457916 6.826973
v 59.271317 -2.883327 27.469238
v 51.341324 26.711445 27.498230
v 39.214127 19.704121 33.218285
v 45.267868 -2.888924 33.196228
v 29.676514 48.376263 27.519417
v 22.674896 36.243359 33.234528
v 0.081772 56.306179 27.527206
v 0.081772 42.297161 33.240448
v -29.512924 48.376255 27.519531
v -22.511185 36.243343 33.234566
v -51.177780 26.711399 27.498344
v -39.050430 19.704082 33.218407
v -59.107697 -2.883366 27.469398
v -45.104233 -2.888962 33.196312
v -51.177780 -32.478107 27.440491
v -39.050415 -25.481995 33.174210
v -29.512878 -54.142963 27.419228
v -22.511185 -42.021263 33.158005
v 0.081833 -62.072815 27.411423
v 0.081833 -48.075008 33.152084
v 29.676559 -54.142925 27.419174
v 22.674896 -42.021225 33.157951
v 51.341446 -32.478073 27.440300
v 39.214157 -25.481953 33.174126
v 26.500397 12.367802 29.177986
v 30.587357 -2.884975 29.163048
v 15.334610 23.533619 29.188911
v 0.081757 27.620564 29.192902
v -15.170975 23.533581 29.188942
v -26.336792 12.367794 29.178017
v -30.423752 -2.884975 29.163132
v -26.336807 -18.137779 29.148209
v -15.170944 -29.303589 29.137245
v 0.081833 -33.390549 29.133247
v 15.334610 -29.303585 29.137230
v 26.500473 -18.137745 29.148071
v 19.925842 8.563999 37.276016
v 11.538681 16.951054 37.284225
v 0.081757 20.020931 37.287224
v 22.995651 -2.892929 37.264793
v 19.925842 -14.349850 37.253609
v 11.538681 -22.736912 37.245407
v 0.081757 -25.806797 37.242378
v -11.375168 -22.736950 37.245415
v -19.762192 -14.349880 37.253670
v -22.832092 -2.892971 37.264877
v -19.762222 8.564007 37.276077
v -11.375198 16.951046 37.284233
v 59.271194 -2.863159 6.855888
v 51.341324 26.731602 6.884834
v 51.341324 26.711445 27.498238
v 59.271317 -2.883327 27.469238
v 29.676498 48.396435 6.906059
v 29.676498 48.376263 27.519424
v 0.081711 56.326305 6.913857
v 0.081772 56.306179 27.527214
v -29.512985 48.396404 6.906136
v -29.512924 48.376255 27.519531
v -51.177811 26.731556 6.884995
v -51.177780 26.711399 27.498344
v -59.107712 -2.863197 6.856056
v -59.107681 -2.883366 27.469398
v -51.177841 -32.457924 6.827103
v -51.177780 -32.478107 27.440491
v -29.512955 -54.122803 6.805862
v -29.512894 -54.142963 27.419228
v 0.081772 -62.052673 6.798073
v 0.081833 -62.072815 27.411430
v 29.676529 -54.122757 6.805779
v 29.676559 -54.142925 27.419182
v 51.341324 -32.457916 6.826973
v 51.341446 -32.478073 27.440308
vt 0.741671 0.500000
vt 0.709293 0.620836
vt 0.810013 0.678986
vt 0.857972 0.500000
vt 0.620835 0.709293
vt 0.678986 0.810014
vt 0.500000 0.741671
vt 0.500000 0.857973
vt 0.379164 0.709293
vt 0.321014 0.810014
vt 0.290707 0.620836
vt 0.189986 0.678986
vt 0.258329 0.500000
vt 0.142027 0.500000
vt 0.290707 0.379165
vt 0.189986 0.321014
vt 0.379164 0.290707
vt 0.321014 0.189987
vt 0.500000 0.258329
vt 0.500000 0.142028
vt 0.620835 0.290707
vt 0.678986 0.189987
vt 0.709293 0.379165
vt 0.810013 0.321014
vt 0.906088 0.734455
vt 0.968910 0.500000
vt 0.734455 0.906088
vt 0.500000 0.968910
vt 0.265545 0.906088
vt 0.093912 0.734455
vt 0.031090 0.500000
vt 0.093912 0.265545
vt 0.265545 0.093912
vt 0.500000 0.031090
vt 0.734455 0.093912
vt 0.906088 0.265545
vt 0.968910 0.500000
vt 0.906088 0.734455
vt 0.810013 0.678986
vt 0.857972 0.500000
vt 0.734455 0.906088
vt 0.678986 0.810014
vt 0.500000 0.968910
vt 0.500000 0.857973
vt 0.265545 0.906088
vt 0.321014 0.810014
vt 0.093912 0.734455
vt 0.189986 0.678986
vt 0.031090 0.500000
vt 0.142027 0.500000
vt 0.093912 0.265545
vt 0.189986 0.321014
vt 0.265545 0.093912
vt 0.321014 0.189987
vt 0.500000 0.031090
vt 0.500000 0.142028
vt 0.734455 0.093912
vt 0.678986 0.189987
vt 0.906088 0.265545
vt 0.810013 0.321014
vt 0.709293 0.620836
vt 0.741671 0.500000
vt 0.620835 0.709293
vt 0.500000 0.741671
vt 0.379164 0.709293
vt 0.290707 0.620836
vt 0.258329 0.500000
vt 0.290707 0.379165
vt 0.379164 0.290707
vt 0.500000 0.258329
vt 0.620835 0.290707
vt 0.709293 0.379165
vt 0.670001 0.597821
vt 0.598031 0.669790
vt 0.499718 0.696133
vt 0.696343 0.499508
vt 0.670001 0.401196
vt 0.598031 0.329226
vt 0.499718 0.302883
vt 0.401406 0.329226
vt 0.329436 0.401196
vt 0.303093 0.499508
vt 0.329436 0.597821
vt 0.401406 0.669791
vt 0.291738 0.379430
vt 0.259563 0.499508
vt 0.379641 0.291527
vt 0.499719 0.259353
vt 0.619797 0.291527
vt 0.707700 0.379430
vt 0.739874 0.499508
vt 0.707700 0.619586
vt 0.619797 0.707489
vt 0.499719 0.739664
vt 0.379641 0.707489
vt 0.291738 0.619586
vt 0.976019 0.465447
vt 0.976019 0.882281
vt 0.023981 0.882281
vt 0.023982 0.465447
vt 0.976019 0.048614
vt 0.976019 0.465447
vt 0.023982 0.465447
vt 0.023982 0.048614
vt 0.976019 0.882281
vt 0.023981 0.882281
vt 0.976019 0.048614
vt 0.976019 0.465447
vt 0.023982 0.465447
vt 0.023982 0.048614
vt 0.976019 0.882281
vt 0.023981 0.882281
vt 0.976019 0.048614
vt 0.976019 0.465447
vt 0.023982 0.465447
vt 0.023982 0.048614
vt 0.976019 0.882281
vt 0.023982 0.882281
vt 0.976019 0.048614
vt 0.976019 0.465447
vt 0.023982 0.465447
vt 0.023982 0.048614
vt 0.976019 0.882281
vt 0.023982 0.882281
vt 0.976019 0.048614
vt 0.976019 0.465447
vt 0.023982 0.465447
vt 0.023981 0.048614
vt 0.976019 0.882281
vt 0.023982 0.882281
vt 0.976019 0.048614
vt 0.023981 0.048614
vn -0.1243 -0.0132 -0.9922
vn -0.1371 -0.1005 -0.9854
vn 0.0663 0.0760 -0.9949
vn 0.0949 0.0328 -0.9949
vn -0.0924 -0.2117 -0.9729
vn 0.0199 0.0991 -0.9949
vn 0.0038 -0.0326 -0.9995
vn -0.0318 0.0959 -0.9949
vn 0.1380 -0.1854 -0.9729
vn -0.0750 0.0672 -0.9949
vn 0.1565 -0.0670 -0.9854
vn -0.0981 0.0209 -0.9950
vn 0.1242 0.0151 -0.9921
vn -0.0949 -0.0309 -0.9950
vn 0.0793 0.0596 -0.9951
vn -0.0663 -0.0740 -0.9951
vn 0.0340 0.0793 -0.9963
vn -0.0199 -0.0971 -0.9951
vn -0.0092 0.0818 -0.9966
vn 0.0318 -0.0939 -0.9951
vn -0.0508 0.0696 -0.9963
vn 0.0750 -0.0653 -0.9950
vn -0.0904 0.0403 -0.9951
vn 0.0981 -0.0189 -0.9950
vn 0.3417 0.1659 -0.9251
vn 0.3784 -0.0271 -0.9253
vn 0.2134 0.3146 -0.9249
vn 0.0280 0.3793 -0.9249
vn -0.1649 0.3426 -0.9249
vn -0.3137 0.2143 -0.9250
vn -0.3784 0.0289 -0.9252
vn -0.3417 -0.1640 -0.9254
vn -0.2134 -0.3128 -0.9255
vn -0.0280 -0.3775 -0.9256
vn 0.1649 -0.3408 -0.9256
vn 0.3137 -0.2125 -0.9254
vn 0.3784 0.0271 0.9252
vn 0.3137 0.2125 0.9254
vn 0.0981 0.0189 0.9950
vn 0.0949 -0.0328 0.9949
vn 0.1649 0.3408 0.9256
vn 0.0750 0.0653 0.9950
vn -0.0280 0.3775 0.9256
vn 0.0318 0.0939 0.9951
vn -0.2134 0.3128 0.9255
vn -0.0199 0.0971 0.9951
vn -0.3417 0.1640 0.9254
vn -0.0663 0.0740 0.9951
vn -0.3784 -0.0289 0.9252
vn -0.0949 0.0309 0.9950
vn -0.3137 -0.2143 0.9250
vn -0.0981 -0.0209 0.9950
vn -0.1649 -0.3426 0.9249
vn -0.0750 -0.0672 0.9949
vn 0.0280 -0.3793 0.9249
vn -0.0318 -0.0959 0.9949
vn 0.2134 -0.3146 0.9249
vn 0.0199 -0.0991 0.9949
vn 0.3417 -0.1659 0.9251
vn 0.0663 -0.0760 0.9949
vn 0.0537 0.0298 0.9981
vn 0.0504 -0.0012 0.9987
vn 0.0530 0.1201 0.9913
vn -0.0215 0.0281 0.9994
vn -0.0093 0.0154 0.9998
vn -0.0885 0.0505 0.9948
vn -0.0802 -0.0007 0.9968
vn -0.0537 -0.0317 0.9981
vn -0.0254 -0.0445 0.9987
vn -0.0002 -0.0453 0.9990
vn 0.0211 -0.0378 0.9991
vn 0.0383 -0.0233 0.9990
vn -0.0094 0.0154 0.9998
vn 0.0529 0.1201 0.9914
vn -0.0215 0.0280 0.9994
vn -0.0253 -0.0445 0.9987
vn 0.3964 0.2883 0.8716
vn 0.3025 0.5232 0.7967
vn -0.0000 0.1199 0.9928
vn 0.3545 0.0370 0.9343
vn 0.2536 -0.1132 0.9607
vn 0.1402 -0.1932 0.9711
vn 0.0241 -0.2258 0.9739
vn -0.0964 -0.2185 0.9711
vn -0.2240 -0.1644 0.9606
vn -0.3545 -0.0389 0.9342
vn -0.4486 0.1978 0.8716
vn -0.3852 0.5273 0.7573
vn -0.0001 -0.0453 0.9990
vn 0.0530 0.1201 0.9914
vn 0.9960 0.0889 0.0001
vn 0.8181 0.5750 0.0006
vn 0.9071 0.4210 0.0004
vn 0.9960 -0.0889 -0.0001
vn 0.4210 0.9071 0.0009
vn 0.5750 0.8181 0.0008
vn -0.0889 0.9960 0.0010
vn 0.0889 0.9960 0.0010
vn -0.5750 0.8181 0.0008
vn -0.4210 0.9071 0.0009
vn -0.9071 0.4210 0.0004
vn -0.8181 0.5750 0.0006
vn -0.9960 -0.0889 -0.0001
vn -0.9960 0.0889 0.0001
vn -0.8181 -0.5750 -0.0006
vn -0.9071 -0.4210 -0.0004
vn -0.4210 -0.9071 -0.0009
vn -0.5750 -0.8181 -0.0008
vn 0.0889 -0.9960 -0.0010
vn -0.0889 -0.9960 -0.0010
vn 0.5750 -0.8181 -0.0008
vn 0.4210 -0.9071 -0.0009
vn 0.9071 -0.4210 -0.0004
vn 0.8181 -0.5750 -0.0006
usemtl radvf
s 1
f 1/1/1 2/2/2 3/3/3
f 1/1/1 3/3/3 4/4/4
f 2/2/2 5/5/5 6/6/6
f 2/2/2 6/6/6 3/3/3
f 5/5/5 7/7/7 8/8/8
f 5/5/5 8/8/8 6/6/6
f 7/7/7 9/9/9 10/10/10
f 7/7/7 10/10/10 8/8/8
f 9/9/9 11/11/11 12/12/12
f 9/9/9 12/12/12 10/10/10
f 11/11/11 13/13/13 14/14/14
f 11/11/11 14/14/14 12/12/12
f 13/13/13 15/15/15 16/16/16
f 13/13/13 16/16/16 14/14/14
f 15/15/15 17/17/17 18/18/18
f 15/15/15 18/18/18 16/16/16
f 17/17/17 19/19/19 20/20/20
f 17/17/17 20/20/20 18/18/18
f 19/19/19 21/21/21 22/22/22
f 19/19/19 22/22/22 20/20/20
f 21/21/21 23/23/23 24/24/24
f 21/21/21 24/24/24 22/22/22
f 23/23/23 1/1/1 4/4/4
f 23/23/23 4/4/4 24/24/24
f 4/4/4 3/3/3 25/25/25
f 4/4/4 25/25/25 26/26/26
f 3/3/3 6/6/6 27/27/27
f 3/3/3 27/27/27 25/25/25
f 6/6/6 8/8/8 28/28/28
f 6/6/6 28/28/28 27/27/27
f 8/8/8 10/10/10 29/29/29
f 8/8/8 29/29/29 28/28/28
f 10/10/10 12/12/12 30/30/30
f 10/10/10 30/30/30 29/29/29
f 12/12/12 14/14/14 31/31/31
f 12/12/12 31/31/31 30/30/30
f 14/14/14 16/16/16 32/32/32
f 14/14/14 32/32/32 31/31/31
f 16/16/16 18/18/18 33/33/33
f 16/16/16 33/33/33 32/32/32
f 18/18/18 20/20/20 34/34/34
f 18/18/18 34/34/34 33/33/33
f 20/20/20 22/22/22 35/35/35
f 20/20/20 35/35/35 34/34/34
f 22/22/22 24/24/24 36/36/36
f 22/22/22 36/36/36 35/35/35
f 24/24/24 4/4/4 26/26/26
f 24/24/24 26/26/26 36/36/36
f 37/37/37 38/38/38 39/39/39
f 37/37/37 39/39/39 40/40/40
f 38/38/38 41/41/41 42/42/42
f 38/38/38 42/42/42 39/39/39
f 41/41/41 43/43/43 44/44/44
f 41/41/41 44/44/44 42/42/42
f 43/43/43 45/45/45 46/46/46
f 43/43/43 46/46/46 44/44/44
f 45/45/45 47/47/47 48/48/48
f 45/45/45 48/48/48 46/46/46
f 47/47/47 49/49/49 50/50/50
f 47/47/47 50/50/50 48/48/48
f 49/49/49 51/51/51 52/52/52
f 49/49/49 52/52/52 50/50/50
f 51/51/51 53/53/53 54/54/54
f 51/51/51 54/54/54 52/52/52
f 53/53/53 55/55/55 56/56/56
f 53/53/53 56/56/56 54/54/54
f 55/55/55 57/57/57 58/58/58
f 55/55/55 58/58/58 56/56/56
f 57/57/57 59/59/59 60/60/60
f 57/57/57 60/60/60 58/58/58
f 59/59/59 37/37/37 40/40/40
f 59/59/59 40/40/40 60/60/60
f 40/40/40 39/39/39 61/61/61
f 40/40/40 61/61/61 62/62/62
f 39/39/39 42/42/42 63/63/63
f 39/39/39 63/63/63 61/61/61
f 42/42/42 44/44/44 64/64/64
f 42/42/42 64/64/64 63/63/63
f 44/44/44 46/46/46 65/65/65
f 44/44/44 65/65/65 64/64/64
f 46/46/46 48/48/48 66/66/66
f 46/46/46 66/66/66 65/65/65
f 48/48/48 50/50/50 67/67/67
f 48/48/48 67/67/67 66/66/66
f 50/50/50 52/52/52 68/68/68
f 50/50/50 68/68/68 67/67/67
f 52/52/52 54/54/54 69/69/69
f 52/52/52 69/69/69 68/68/68
f 54/54/54 56/56/56 70/70/70
f 54/54/54 70/70/70 69/69/69
f 56/56/56 58/58/58 71/71/71
f 56/56/56 71/71/71 70/70/70
f 58/58/58 60/60/60 72/72/72
f 58/58/58 72/72/72 71/71/71
f 60/60/60 40/40/40 62/62/62
f 60/60/60 62/62/62 72/72/72
f 65/65/73 61/61/61 63/63/74
f 65/65/73 63/63/74 64/64/75
f 65/65/73 72/72/72 62/62/62
f 65/65/73 62/62/62 61/61/61
f 65/65/73 70/70/70 71/71/71
f 65/65/73 71/71/71 72/72/72
f 65/65/73 68/68/68 69/69/76
f 65/65/73 69/69/76 70/70/70
f 65/65/73 66/66/66 67/67/67
f 65/65/73 67/67/67 68/68/68
f 7/7/7 13/13/13 11/11/11
f 7/7/7 11/11/11 9/9/9
f 7/7/7 17/17/17 15/15/15
f 7/7/7 15/15/15 13/13/13
f 7/7/7 21/21/21 19/19/19
f 7/7/7 19/19/19 17/17/17
f 7/7/7 1/1/1 23/23/23
f 7/7/7 23/23/23 21/21/21
f 7/7/7 5/5/5 2/2/2
f 7/7/7 2/2/2 1/1/1
f 73/73/77 74/74/78 75/75/79
f 73/73/77 75/75/79 76/76/80
f 77/77/81 76/76/80 75/75/79
f 77/77/81 75/75/79 78/78/82
f 79/79/83 78/78/82 75/75/79
f 79/79/83 75/75/79 80/80/84
f 81/81/85 80/80/84 75/75/79
f 81/81/85 75/75/79 82/82/86
f 83/83/87 82/82/86 75/75/79
f 83/83/87 75/75/79 84/84/88
f 68/85/68 81/81/85 82/82/86
f 68/85/68 82/82/86 67/86/67
f 69/87/69 80/80/84 81/81/85
f 69/87/69 81/81/85 68/85/68
f 70/88/89 79/79/83 80/80/84
f 70/88/89 80/80/84 69/87/69
f 79/79/83 70/88/89 71/89/71
f 79/79/83 71/89/71 78/78/82
f 78/78/82 71/89/71 72/90/72
f 78/78/82 72/90/72 77/77/81
f 77/77/81 72/90/72 62/91/62
f 77/77/81 62/91/62 76/76/80
f 76/76/80 62/91/62 61/92/61
f 76/76/80 61/92/61 73/73/77
f 73/73/77 61/92/61 63/93/90
f 73/73/77 63/93/90 74/74/78
f 63/93/90 64/94/75 75/75/79
f 63/93/90 75/75/79 74/74/78
f 75/75/79 64/94/75 65/95/65
f 75/75/79 65/95/65 84/84/88
f 84/84/88 65/95/65 66/96/66
f 84/84/88 66/96/66 83/83/87
f 83/83/87 66/96/66 67/86/67
f 83/83/87 67/86/67 82/82/86
usemtl radp
f 85/97/91 86/98/92 87/99/93
f 85/97/91 87/99/93 88/100/94
f 86/101/92 89/102/95 90/103/96
f 86/101/92 90/103/96 87/104/93
f 89/102/95 91/105/97 92/106/98
f 89/102/95 92/106/98 90/103/96
f 91/107/97 93/108/99 94/109/100
f 91/107/97 94/109/100 92/110/98
f 93/108/99 95/111/101 96/112/102
f 93/108/99 96/112/102 94/109/100
f 95/113/101 97/114/103 98/115/104
f 95/113/101 98/115/104 96/116/102
f 97/114/103 99/117/105 100/118/106
f 97/114/103 100/118/106 98/115/104
f 99/119/105 101/120/107 102/121/108
f 99/119/105 102/121/108 100/122/106
f 101/120/107 103/123/109 104/124/110
f 101/120/107 104/124/110 102/121/108
f 103/125/109 105/126/111 106/127/112
f 103/125/109 106/127/112 104/128/110
f 105/126/111 107/129/113 108/130/114
f 105/126/111 108/130/114 106/127/112
f 107/131/113 85/97/91 88/100/94
f 107/131/113 88/100/94 108/132/114
